<svg xmlns="http://www.w3.org/2000/svg" viewBox="0 0 24 30" fill="none" x="0px" y="0px"><path fill-rule="evenodd" clip-rule="evenodd" d="M11.2314 5.50395C9.8684 5.4559 8.45462 5.8415 7.38684 6.77247C5.89263 8.07522 5.43295 9.76633 5.50765 11.4576C5.58295 13.1624 6.20347 14.8364 6.83124 16.0054C7.52969 17.3061 7.62196 18.3537 7.51055 19.1041C7.45543 19.4754 7.35186 19.7642 7.25759 19.9657C7.2105 20.0664 7.16575 20.1454 7.13049 20.202C7.11286 20.2304 7.09758 20.2532 7.08553 20.2705C7.0795 20.2792 7.07428 20.2864 7.06997 20.2923L7.0642 20.3L7.06186 20.3031L7.06083 20.3045L7.06034 20.3051C7.06011 20.3054 7.05989 20.3057 6.66421 20L7.05989 20.3057C6.89106 20.5242 6.57705 20.5645 6.35853 20.3957C6.14173 20.2282 6.10036 19.9178 6.26457 19.6995C6.26478 19.6992 6.26505 19.6988 6.26538 19.6984C6.26777 19.6949 6.27332 19.6868 6.28129 19.674C6.29723 19.6483 6.32271 19.6042 6.35175 19.5421C6.40974 19.4181 6.48205 19.2222 6.52139 18.9572C6.59891 18.4351 6.55444 17.6037 5.95023 16.4785C5.27533 15.2217 4.59247 13.4 4.50863 11.5017C4.42418 9.5899 4.9496 7.57072 6.72967 6.01872C8.02614 4.88837 9.70441 4.4495 11.2666 4.50457C12.8204 4.55934 14.3292 5.10575 15.2875 6.03708C15.9505 6.68143 16.5207 7.34868 16.9191 8.19765C17.3026 9.01483 17.5124 9.9686 17.5288 11.1867L18.569 12.7104C19.1718 13.5933 18.6838 14.8054 17.6374 15.0244L17.527 15.0475C17.5144 15.916 17.4545 16.761 17.2603 17.4568C17.0346 18.2651 16.5888 18.9946 15.7084 19.2249C15.2804 19.3368 14.8471 19.3496 14.4476 19.3117L14.2403 20.348C14.1862 20.6188 13.9227 20.7944 13.652 20.7403C13.3812 20.6861 13.2056 20.4227 13.2597 20.1519L13.4667 19.1173C13.087 19.0047 12.7794 18.8713 12.5978 18.7795C12.3514 18.6548 12.2527 18.354 12.3774 18.1076C12.5021 17.8612 12.8029 17.7625 13.0493 17.8872C13.2244 17.9758 13.5972 18.1347 14.0501 18.2365C14.506 18.3391 15.0053 18.3751 15.4553 18.2574C15.8358 18.1579 16.114 17.8439 16.2971 17.1879C16.4814 16.5276 16.5298 15.6456 16.5298 14.6407C16.5298 14.404 16.6958 14.1998 16.9274 14.1513L17.4326 14.0456C17.7814 13.9726 17.9441 13.5686 17.7432 13.2743L16.6169 11.6246C16.5602 11.5415 16.5298 11.4432 16.5298 11.3427C16.5298 10.1623 16.3382 9.31355 16.0139 8.62249C15.6883 7.92867 15.2131 7.35917 14.5906 6.7542C13.8522 6.03657 12.6027 5.55229 11.2314 5.50395ZM11 8.49999C10.7239 8.49999 10.5 8.27613 10.5 7.99999C10.5 7.72385 10.7239 7.49999 11 7.49999H13C13.2023 7.49999 13.3846 7.62181 13.462 7.80865C13.5394 7.99548 13.4966 8.21054 13.3536 8.35354L12.2071 9.49999H13C13.2762 9.49999 13.5 9.72385 13.5 9.99999C13.5 10.2761 13.2762 10.5 13 10.5H11C10.7978 10.5 10.6155 10.3782 10.5381 10.1913C10.4607 10.0045 10.5035 9.78943 10.6465 9.64643L11.7929 8.49999H11ZM7.50002 11.5C7.22388 11.5 7.00002 11.2761 7.00002 11C7.00002 10.7238 7.22388 10.5 7.50002 10.5H9.50002C9.70225 10.5 9.88457 10.6218 9.96196 10.8086C10.0394 10.9955 9.99658 11.2105 9.85358 11.3535L8.70713 12.5H9.50002C9.77617 12.5 10 12.7238 10 13C10 13.2761 9.77617 13.5 9.50002 13.5H7.50002C7.29779 13.5 7.11547 13.3782 7.03808 13.1913C6.96069 13.0045 7.00347 12.7894 7.14647 12.6464L8.29292 11.5H7.50002Z" fill="black"/><text x="0" y="39" fill="#000000" font-size="5px" font-weight="bold" font-family="'Helvetica Neue', Helvetica, Arial-Unicode, Arial, Sans-serif">Created by SeungJun</text><text x="0" y="44" fill="#000000" font-size="5px" font-weight="bold" font-family="'Helvetica Neue', Helvetica, Arial-Unicode, Arial, Sans-serif">from the Noun Project</text></svg>