<svg xmlns="http://www.w3.org/2000/svg" viewBox="0 0 24 30" fill="none" x="0px" y="0px"><path fill-rule="evenodd" clip-rule="evenodd" d="M12 3C9.79086 3 8 4.79086 8 7C8 7.55952 8.11488 8.09221 8.32235 8.57577C7.28914 8.95804 6.38739 9.55331 5.71723 10.4222C4.93172 11.4406 4.5 12.7889 4.5 14.4999V19.9999C4.5 20.276 4.72386 20.4999 5 20.4999C5.27614 20.4999 5.5 20.276 5.5 19.9999V14.4999C5.5 12.9606 5.88581 11.841 6.50906 11.0329C7.07639 10.2974 7.8699 9.78179 8.84026 9.45306C9.5721 10.3944 10.7153 11 12 11C13.2846 11 14.4277 10.3945 15.1596 9.45326C16.13 9.78198 16.9236 10.2976 17.4909 11.0332C18.1142 11.8412 18.5 12.9608 18.5 14.5001V20.0001C18.5 20.2763 18.7239 20.5001 19 20.5001C19.2761 20.5001 19.5 20.2763 19.5 20.0001V14.5001C19.5 12.7891 19.0683 11.4409 18.2828 10.4224C17.6126 9.55353 16.7108 8.95825 15.6776 8.57598C15.8851 8.09237 16 7.5596 16 7C16 4.79086 14.2091 3 12 3ZM9 7C9 5.34315 10.3431 4 12 4C13.6569 4 15 5.34315 15 7C15 8.65685 13.6569 10 12 10C10.3431 10 9 8.65685 9 7Z" fill="black"/><path d="M11.5 14.5C10.1193 14.5 9 15.6193 9 17V17.375C9 18.5486 9.9514 19.5 11.125 19.5H11.75C12.5784 19.5 13.25 18.8284 13.25 18V17.75C13.25 17.0596 12.6904 16.5 12 16.5H11.25C10.9739 16.5 10.75 16.7239 10.75 17C10.75 17.2761 10.9739 17.5 11.25 17.5H12C12.2761 17.5 12.5 17.7239 12.5 18C12.5 18.2761 12.2761 18.5 12 18.5H11.25C10.4216 18.5 9.75 17.8284 9.75 17C9.75 16.1716 10.4216 15.5 11.25 15.5H12C13.2426 15.5 14.25 16.5074 14.25 17.75V18C14.25 19.3807 13.1307 20.5 11.75 20.5H11.125C9.39911 20.5 8 19.1009 8 17.375V17C8 15.067 9.567 13.5 11.5 13.5H12C14.2091 13.5 16 15.2909 16 17.5V18C16 18.2761 15.7761 18.5 15.5 18.5C15.2239 18.5 15 18.2761 15 18V17.5C15 15.8431 13.6569 14.5 12 14.5H11.5Z" fill="black"/><text x="0" y="39" fill="#000000" font-size="5px" font-weight="bold" font-family="'Helvetica Neue', Helvetica, Arial-Unicode, Arial, Sans-serif">Created by SeungJun</text><text x="0" y="44" fill="#000000" font-size="5px" font-weight="bold" font-family="'Helvetica Neue', Helvetica, Arial-Unicode, Arial, Sans-serif">from the Noun Project</text></svg>