<svg xmlns="http://www.w3.org/2000/svg" viewBox="0 0 24 30" fill="none" x="0px" y="0px"><path d="M13.3681 5.96677C13.851 6.174 14.2692 6.44211 14.5905 6.75444C15.213 7.3594 15.6882 7.9289 16.0138 8.62272C16.3381 9.31378 16.5298 10.1625 16.5298 11.3429C16.5298 11.4435 16.5601 11.5417 16.6168 11.6248L17.7431 13.2745C17.944 13.5688 17.7814 13.9728 17.4326 14.0458L16.9274 14.1515C16.6957 14.2 16.5298 14.4043 16.5298 14.6409C16.5298 15.6458 16.4813 16.5278 16.297 17.1881C16.1139 17.8442 15.8358 18.1581 15.4553 18.2577C15.0052 18.3754 14.506 18.3393 14.05 18.2368C13.5971 18.1349 13.2243 17.976 13.0492 17.8874C12.8028 17.7627 12.502 17.8614 12.3773 18.1078C12.2527 18.3542 12.3514 18.655 12.5978 18.7797C12.7794 18.8716 13.0869 19.005 13.4666 19.1175L13.2597 20.1523C13.2055 20.423 13.3811 20.6865 13.6519 20.7406C13.9227 20.7948 14.1861 20.6192 14.2403 20.3484L14.4476 19.3119C14.8471 19.3499 15.2804 19.337 15.7083 19.2251C16.5887 18.9949 17.0346 18.2654 17.2602 17.457C17.4544 16.7612 17.5144 15.9162 17.527 15.0477L17.6374 15.0246C18.6838 14.8057 19.1718 13.5936 18.569 12.7106L17.5287 11.187C17.5123 9.96883 17.3026 9.01506 16.9191 8.19789C16.5207 7.34891 15.9505 6.68167 15.2875 6.03731C14.8196 5.58263 14.2206 5.2197 13.5491 4.96093L13.4314 5.72421C13.4183 5.80943 13.3968 5.89044 13.3681 5.96677Z" fill="black"/><path d="M5.32284 7.74299C4.66257 8.93273 4.45286 10.2407 4.50857 11.5019C4.59241 13.4002 5.27527 15.222 5.95017 16.4788C6.55438 17.6039 6.59885 18.4353 6.52133 18.9575C6.48199 19.2225 6.40968 19.4183 6.35169 19.5424C6.32264 19.6045 6.29717 19.6486 6.28123 19.6742C6.27326 19.687 6.26771 19.6952 6.26532 19.6986L6.26451 19.6997C6.1003 19.918 6.14167 20.2284 6.35847 20.3959C6.57699 20.5647 6.891 20.5244 7.05983 20.3059L7.06077 20.3047L7.0618 20.3033L7.06414 20.3002L7.06991 20.2925C7.07422 20.2866 7.07944 20.2794 7.08547 20.2707C7.09752 20.2535 7.1128 20.2306 7.13043 20.2023C7.16568 20.1456 7.21044 20.0667 7.25753 19.966C7.3518 19.7644 7.45537 19.4756 7.51049 19.1043C7.6219 18.3539 7.52963 17.3063 6.83118 16.0057C6.20341 14.8366 5.58289 13.1626 5.50759 11.4578C5.459 10.3578 5.63649 9.2578 6.17767 8.26471L5.32284 7.74299Z" fill="black"/><path d="M12.4431 5.57136L12.8317 3.05183C12.847 2.95275 12.7834 2.85661 12.6847 2.82943L11.6458 2.5435C11.5264 2.51064 11.4083 2.59138 11.3988 2.71241L11.3025 3.9439C11.293 4.06493 11.175 4.14567 11.0555 4.11281L10.1509 3.86384C10.0087 3.8247 9.87762 3.94533 9.90757 4.0878L10.5835 7.30364C10.6286 7.51833 10.9407 7.51708 10.9739 7.30207L11.224 5.68013C11.2416 5.56604 11.3556 5.4942 11.4693 5.52549L12.1978 5.726C12.3116 5.75729 12.4255 5.68545 12.4431 5.57136Z" fill="black"/><path d="M6.01262 3.38987L7.58091 5.39972C7.65193 5.49074 7.62614 5.62295 7.52541 5.68431L6.88008 6.07738C6.77935 6.13874 6.75356 6.27095 6.82458 6.36197L7.83416 7.65581C7.96799 7.82732 7.755 8.05543 7.56774 7.94114L4.76278 6.22922C4.63851 6.15337 4.6405 5.97525 4.76648 5.89852L5.56781 5.41043C5.67358 5.346 5.69569 5.2047 5.61406 5.11486L4.78337 4.20062C4.70173 4.11078 4.72384 3.96948 4.82962 3.90505L5.7499 3.34451C5.83737 3.29123 5.95095 3.31084 6.01262 3.38987Z" fill="black"/><text x="0" y="39" fill="#000000" font-size="5px" font-weight="bold" font-family="'Helvetica Neue', Helvetica, Arial-Unicode, Arial, Sans-serif">Created by SeungJun</text><text x="0" y="44" fill="#000000" font-size="5px" font-weight="bold" font-family="'Helvetica Neue', Helvetica, Arial-Unicode, Arial, Sans-serif">from the Noun Project</text></svg>