<svg xmlns="http://www.w3.org/2000/svg" viewBox="0 0 24 30" fill="none" x="0px" y="0px"><path d="M11.2314 5.50395C9.8684 5.4559 8.45462 5.8415 7.38684 6.77247C5.89263 8.07522 5.43295 9.76633 5.50765 11.4576C5.58295 13.1624 6.20347 14.8364 6.83124 16.0054C7.52969 17.3061 7.62196 18.3537 7.51055 19.1041C7.45543 19.4754 7.35186 19.7642 7.25759 19.9657C7.2105 20.0664 7.16575 20.1454 7.13049 20.202C7.11286 20.2304 7.09758 20.2532 7.08553 20.2705C7.0795 20.2792 7.07428 20.2864 7.06997 20.2923L7.0642 20.3L7.06186 20.3031L7.06083 20.3045C7.0606 20.3048 7.05989 20.3057 6.66421 20L7.05989 20.3057C6.89106 20.5242 6.57705 20.5645 6.35853 20.3957C6.14173 20.2282 6.10036 19.9178 6.26457 19.6995L6.26538 19.6984C6.26777 19.6949 6.27332 19.6868 6.28129 19.674C6.29723 19.6483 6.32271 19.6042 6.35175 19.5421C6.40974 19.4181 6.48205 19.2222 6.52139 18.9572C6.59891 18.4351 6.55444 17.6037 5.95023 16.4785C5.27533 15.2217 4.59247 13.4 4.50863 11.5017C4.42418 9.5899 4.9496 7.57072 6.72967 6.01872C8.02614 4.88837 9.70441 4.4495 11.2666 4.50457C12.8204 4.55934 14.3292 5.10575 15.2875 6.03708C15.9505 6.68143 16.5207 7.34868 16.9191 8.19765C17.3026 9.01483 17.5124 9.9686 17.5288 11.1867L18.569 12.7104C19.1718 13.5933 18.6838 14.8054 17.6374 15.0244L17.527 15.0475C17.5144 15.916 17.4545 16.761 17.2603 17.4568C17.0346 18.2651 16.5888 18.9946 15.7084 19.2249C15.2804 19.3368 14.8471 19.3496 14.4476 19.3117L14.2403 20.3482C14.1861 20.6189 13.9227 20.7945 13.6519 20.7404C13.3811 20.6862 13.2055 20.4228 13.2597 20.152L13.4666 19.1173C13.087 19.0047 12.7794 18.8713 12.5978 18.7795C12.3514 18.6548 12.2527 18.354 12.3774 18.1076C12.5021 17.8612 12.8029 17.7625 13.0493 17.8872C13.2244 17.9758 13.5972 18.1347 14.0501 18.2365C14.506 18.3391 15.0053 18.3751 15.4553 18.2574C15.8358 18.1579 16.114 17.8439 16.2971 17.1879C16.4814 16.5276 16.5298 15.6456 16.5298 14.6407C16.5298 14.404 16.6958 14.1998 16.9274 14.1513L17.4326 14.0456C17.7814 13.9726 17.9441 13.5686 17.7432 13.2743L16.6169 11.6246C16.5602 11.5415 16.5298 11.4432 16.5298 11.3427C16.5298 10.1623 16.3382 9.31355 16.0139 8.62249C15.6883 7.92867 15.2131 7.35917 14.5906 6.7542C13.8522 6.03657 12.6027 5.55229 11.2314 5.50395Z" fill="black"/><path d="M18.4162 17.8461C18.7152 18.0186 19.0974 17.9162 19.27 17.6173C19.4426 17.3184 19.3402 16.9361 19.0412 16.7635C18.7423 16.5909 18.3601 16.6934 18.1875 16.9923C18.0149 17.2912 18.1173 17.6735 18.4162 17.8461Z" fill="black"/><path d="M20.6483 17.98C20.9472 18.1526 21.3295 18.0502 21.5021 17.7513C21.6746 17.4523 21.5722 17.0701 21.2733 16.8975C20.9744 16.7249 20.5921 16.8273 20.4195 17.1263C20.2469 17.4252 20.3494 17.8074 20.6483 17.98Z" fill="black"/><path d="M19.6483 19.7121C19.9472 19.8847 20.3295 19.7822 20.5021 19.4833C20.6746 19.1844 20.5722 18.8021 20.2733 18.6295C19.9744 18.457 19.5921 18.5594 19.4195 18.8583C19.2469 19.1572 19.3494 19.5395 19.6483 19.7121Z" fill="black"/><path d="M19.5021 21.2154C19.3295 21.5143 18.9472 21.6167 18.6483 21.4441C18.3494 21.2715 18.2469 20.8893 18.4195 20.5904C18.5921 20.2914 18.9744 20.189 19.2733 20.3616C19.5722 20.5342 19.6746 20.9164 19.5021 21.2154Z" fill="black"/><path d="M18.27 19.3493C18.0974 19.6483 17.7152 19.7507 17.4162 19.5781C17.1173 19.4055 17.0149 19.0233 17.1875 18.7243C17.3601 18.4254 17.7423 18.323 18.0412 18.4956C18.3402 18.6682 18.4426 19.0504 18.27 19.3493Z" fill="black"/><text x="0" y="39" fill="#000000" font-size="5px" font-weight="bold" font-family="'Helvetica Neue', Helvetica, Arial-Unicode, Arial, Sans-serif">Created by SeungJun</text><text x="0" y="44" fill="#000000" font-size="5px" font-weight="bold" font-family="'Helvetica Neue', Helvetica, Arial-Unicode, Arial, Sans-serif">from the Noun Project</text></svg>