<svg xmlns="http://www.w3.org/2000/svg" viewBox="0 0 24 30" fill="none" x="0px" y="0px"><path d="M15.7734 5.04111C15.7958 4.76624 15.5915 4.52464 15.3166 4.50175C15.0414 4.47884 14.7997 4.68335 14.7768 4.95854L14.7767 4.96023L14.7765 4.96283L14.7759 4.97071L14.7741 4.99694C14.7727 5.01898 14.771 5.05002 14.7695 5.08925C14.7663 5.16767 14.7638 5.27908 14.7655 5.41692C14.7689 5.69204 14.7895 6.07562 14.858 6.51442C14.9937 7.38374 15.3247 8.51503 16.1295 9.43561C16.8076 10.2114 17.6429 11.5382 18.1203 12.9132C18.6074 14.3162 18.6665 15.5995 18.0579 16.4395C17.6796 16.9617 17.0655 17.2499 16.3762 17.3905C16.3477 17.3964 16.3191 17.4019 16.2905 17.4072C16.4792 17.2728 16.5546 17.0204 16.4581 16.7997C16.3474 16.5467 16.0526 16.4314 15.7996 16.542C14.7586 16.9975 14.188 17.4659 13.7582 17.8187C13.6865 17.8776 13.6185 17.9334 13.5531 17.9852C13.331 18.1613 13.1524 18.281 12.9365 18.3632C12.7212 18.4452 12.4376 18.5013 12.0014 18.5001C11.421 18.4985 11.0708 18.4377 10.8332 18.3539C10.6075 18.2743 10.455 18.1642 10.2793 18.0036C10.219 17.9485 10.1569 17.888 10.0904 17.8232C9.73176 17.4741 9.24299 16.9982 8.2004 16.542C7.94741 16.4314 7.65259 16.5467 7.54191 16.7997C7.44666 17.0174 7.51882 17.2661 7.70204 17.4018C7.02218 17.2862 6.54699 17.0782 6.22186 16.8287C5.73942 16.4584 5.52567 15.9489 5.50215 15.3317C5.47802 14.698 5.65812 13.9694 5.95914 13.242C6.258 12.5198 6.66216 11.832 7.04961 11.2913C7.21044 11.0668 7.15885 10.7544 6.93438 10.5936C6.70991 10.4328 6.39756 10.4844 6.23672 10.7088C5.81148 11.3023 5.36739 12.0567 5.03513 12.8596C4.70503 13.6574 4.47115 14.537 4.50288 15.3698C4.53523 16.219 4.84718 17.0342 5.613 17.6219C6.3595 18.1949 7.47119 18.5 8.99999 18.5C9.09917 18.5 9.19161 18.4712 9.26935 18.4214C9.30929 18.4594 9.34829 18.4973 9.38702 18.5348C9.45907 18.6047 9.53016 18.6736 9.60452 18.7416C9.83807 18.9551 10.1044 19.1572 10.5004 19.2969C10.8845 19.4324 11.3587 19.4984 11.9986 19.5001C12.5234 19.5016 12.9346 19.434 13.2924 19.2977C13.6496 19.1617 13.9223 18.9686 14.1742 18.769C14.2484 18.7101 14.3221 18.6498 14.3973 18.5882C14.4434 18.5505 14.49 18.5123 14.5377 18.4737C15.0394 18.5132 15.8013 18.5285 16.5762 18.3703C17.3906 18.2041 18.2836 17.8324 18.8677 17.0262C19.7786 15.769 19.5772 14.0604 19.065 12.5852C18.543 11.082 17.6401 9.64428 16.8823 8.77745C16.2511 8.05542 15.9667 7.13347 15.846 6.36018C15.7863 5.97768 15.7684 5.64263 15.7654 5.40443C15.7639 5.28562 15.7662 5.1917 15.7687 5.12896C15.7699 5.09761 15.7712 5.07411 15.7722 5.05926L15.7732 5.04358L15.7734 5.04111Z" fill="black"/><text x="0" y="39" fill="#000000" font-size="5px" font-weight="bold" font-family="'Helvetica Neue', Helvetica, Arial-Unicode, Arial, Sans-serif">Created by SeungJun</text><text x="0" y="44" fill="#000000" font-size="5px" font-weight="bold" font-family="'Helvetica Neue', Helvetica, Arial-Unicode, Arial, Sans-serif">from the Noun Project</text></svg>