<?xml version="1.0" encoding="UTF-8" standalone="no"?>
<!-- Created with Inkscape (http://www.inkscape.org/) -->

<svg
   width="11.809031"
   height="11.094944"
   viewBox="0 0 3.1244729 2.9355372"
   version="1.1"
   id="svg1"
   inkscape:version="1.4 (e7c3feb1, 2024-10-09)"
   sodipodi:docname="camara.svg"
   xml:space="preserve"
   inkscape:export-batch-path="/Users/albacostasfernandez/Documents/iconos"
   inkscape:export-batch-name="icono"
   xmlns:inkscape="http://www.inkscape.org/namespaces/inkscape"
   xmlns:sodipodi="http://sodipodi.sourceforge.net/DTD/sodipodi-0.dtd"
   xmlns="http://www.w3.org/2000/svg"
   xmlns:svg="http://www.w3.org/2000/svg"><sodipodi:namedview
     id="namedview1"
     pagecolor="#ffffff"
     bordercolor="#000000"
     borderopacity="0.25"
     inkscape:showpageshadow="2"
     inkscape:pageopacity="0.0"
     inkscape:pagecheckerboard="0"
     inkscape:deskcolor="#d1d1d1"
     inkscape:document-units="mm"
     inkscape:zoom="7.487335"
     inkscape:cx="13.289107"
     inkscape:cy="-6.6779434"
     inkscape:window-width="1104"
     inkscape:window-height="781"
     inkscape:window-x="0"
     inkscape:window-y="38"
     inkscape:window-maximized="0"
     inkscape:current-layer="layer1-2"
     showguides="false"><sodipodi:guide
       position="-42.997709,1.6333964"
       orientation="1,0"
       id="guide50"
       inkscape:locked="false" /></sodipodi:namedview><defs
     id="defs1" /><g
     inkscape:label="mareo"
     inkscape:groupmode="layer"
     id="layer1-0-6"
     sodipodi:insensitive="true"
     transform="translate(-0.63088564,-0.75958521)"><path
       sodipodi:type="spiral"
       style="fill:none;fill-rule:evenodd;stroke:#000000;stroke-width:0.755906;stroke-dasharray:none"
       id="path28"
       sodipodi:cx="166.29411"
       sodipodi:cy="6.119915"
       sodipodi:expansion="1"
       sodipodi:revolution="3"
       sodipodi:radius="6.0964518"
       sodipodi:argument="-19.10323"
       sodipodi:t0="0"
       d="m 166.29411,6.119915 c 0.29589,-0.07671 0.24939,0.3609997 0.1275,0.4917789 -0.3303,0.3544038 -0.89099,0.1127924 -1.11105,-0.2367829 -0.39365,-0.6253084 -0.0131,-1.4239326 0.60106,-1.7303328 0.90127,-0.4496545 1.9656,0.085451 2.34961,0.9653449 0.51182,1.1727597 -0.18321,2.5105742 -1.32963,2.9688866 -1.44264,0.5767392 -3.05716,-0.2805298 -3.58816,-1.6939068 -0.64311,-1.7117889 0.37758,-3.604672 2.05819,-4.2074404 1.98053,-0.7103417 4.15275,0.4744623 4.82671,2.4224687 0.77812,2.2490504 -0.57123,4.7012278 -2.78675,5.4459938 -2.51741,0.846251 -5.24996,-0.6679223 -6.06527,-3.1510302 -0.91464,-2.7856718 0.76456,-5.7989037 3.51532,-6.68454801 3.05385,-0.98323305 6.34798,0.86114961 7.30382,3.87959241"
       transform="matrix(0.26458333,0,0,0.26458333,-41.900024,0.74214594)" /><path
       style="fill:#3771c8;fill-opacity:1;fill-rule:evenodd;stroke:#0042ea;stroke-width:0.0275362;stroke-dasharray:none;stroke-opacity:1"
       d="m 168.22481,13.882189 c -2.23607,-0.396359 -3.94955,-2.115007 -4.3613,-4.374464 -0.082,-0.449833 -0.0796,-1.3071511 0.005,-1.7849752 0.37153,-2.0991727 1.88728,-3.8597014 3.90094,-4.5309236 0.67059,-0.2235294 1.01655,-0.2751054 1.83962,-0.2742497 0.84862,8.824e-4 1.17477,0.052347 1.93452,0.3052587 1.69453,0.5640874 3.11121,1.8769421 3.81713,3.5373966 0.22029,0.5181557 0.22697,0.4921341 -0.15834,0.6170722 -0.17944,0.058184 -0.32791,0.1023373 -0.32994,0.098119 -0.002,-0.00422 -0.0503,-0.1306142 -0.10726,-0.28088 -0.57302,-1.5113595 -1.83826,-2.7353105 -3.38745,-3.2768977 -0.57374,-0.2005781 -0.9295,-0.2641767 -1.58817,-0.2839186 -0.92783,-0.027809 -1.60524,0.1060932 -2.36305,0.4670902 -0.56303,0.2682133 -0.95449,0.5456269 -1.40809,0.9978478 -0.61529,0.6134225 -0.98601,1.2097262 -1.25497,2.0186045 -0.31263,0.9402372 -0.33225,1.9058574 -0.0579,2.8484095 0.51176,1.7579703 2.12068,3.0783823 3.94392,3.2366963 2.00644,0.174224 3.81609,-1.081636 4.33819,-3.010627 0.0868,-0.3207065 0.0963,-0.4178317 0.0954,-0.9754474 -8.7e-4,-0.5142805 -0.014,-0.6665035 -0.0776,-0.8978214 -0.35838,-1.3043356 -1.35779,-2.2851683 -2.65496,-2.6056036 -0.37261,-0.092043 -1.14193,-0.082192 -1.52464,0.019522 -1.08404,0.2881098 -1.94004,1.150183 -2.20839,2.2240641 -0.11059,0.442573 -0.0864,1.1003006 0.0557,1.5144856 0.4554,1.3273517 1.88034,2.0518257 3.12187,1.5872347 0.84263,-0.315323 1.40658,-1.2305781 1.27631,-2.0713929 -0.0528,-0.340504 -0.18196,-0.6113988 -0.41133,-0.862367 -0.75142,-0.8221676 -2.10338,-0.4954585 -2.10644,0.5090294 -0.001,0.3453839 0.18032,0.5709724 0.47035,0.585038 0.0743,0.0036 0.1697,0.025075 0.212,0.047716 0.0877,0.046924 0.19105,0.054422 0.19087,0.013844 -7e-5,-0.015026 -0.0396,-0.174804 -0.0878,-0.3550607 -0.0962,-0.3597949 -0.085,-0.3981569 0.10612,-0.3615292 0.13311,0.025516 0.26186,0.1137386 0.36203,0.2480718 0.0571,0.07659 0.075,0.154706 0.0745,0.3260418 -7.7e-4,0.3044286 -0.1295,0.5288881 -0.38801,0.6765271 -0.24115,0.1377261 -0.43289,0.1640483 -0.69515,0.095428 -0.85861,-0.2246628 -1.22435,-1.176008 -0.78397,-2.0392351 0.20296,-0.3978247 0.74797,-0.7979506 1.22064,-0.8961453 0.2828,-0.058752 0.77603,-0.025766 1.04529,0.069906 0.69998,0.2487134 1.27096,0.8774432 1.45995,1.607611 0.12721,0.4914856 0.0638,1.1239482 -0.1629,1.6238281 -0.40374,0.890442 -1.24391,1.499704 -2.24189,1.625752 -1.09965,0.138889 -2.28268,-0.432445 -2.95725,-1.428177 -0.6084,-0.8980624 -0.72368,-2.077499 -0.30801,-3.1513451 0.35764,-0.9239324 1.21281,-1.7794692 2.13369,-2.1345967 0.86507,-0.333607 1.87327,-0.3502878 2.72774,-0.045131 1.44444,0.515859 2.472,1.6919282 2.81701,3.2241596 0.0876,0.3891985 0.0883,1.2989305 10e-4,1.7062042 -0.21077,0.985849 -0.61028,1.717946 -1.33395,2.444393 -0.66861,0.671174 -1.31576,1.044418 -2.21729,1.278815 -0.38021,0.09885 -0.49415,0.112021 -1.06333,0.122883 -0.42127,0.008 -0.73016,-0.0043 -0.9107,-0.03626 z"
       id="path33"
       transform="matrix(0.26458333,0,0,0.26458333,-42.699999,0)" /></g></svg>
