<svg xmlns="http://www.w3.org/2000/svg" viewBox="0 0 24 30" fill="none" x="0px" y="0px"><path d="M11.2314 5.50395C9.8684 5.4559 8.45462 5.8415 7.38684 6.77247C5.89263 8.07522 5.43295 9.76633 5.50765 11.4576C5.58295 13.1624 6.20347 14.8364 6.83124 16.0054C7.52969 17.3061 7.62196 18.3537 7.51055 19.1041C7.45543 19.4754 7.35186 19.7642 7.25759 19.9657C7.2105 20.0664 7.16575 20.1454 7.13049 20.202C7.11286 20.2304 7.09758 20.2532 7.08553 20.2705C7.0795 20.2792 7.07428 20.2864 7.06997 20.2923L7.0642 20.3L7.06186 20.3031L7.06083 20.3045C7.0606 20.3048 7.05989 20.3057 6.66421 20L7.05989 20.3057C6.89106 20.5242 6.57705 20.5645 6.35853 20.3957C6.14173 20.2282 6.10036 19.9178 6.26457 19.6995L6.26538 19.6984C6.26777 19.6949 6.27332 19.6868 6.28129 19.674C6.29723 19.6483 6.32271 19.6042 6.35175 19.5421C6.40974 19.4181 6.48205 19.2222 6.52139 18.9572C6.59891 18.4351 6.55444 17.6037 5.95023 16.4785C5.27533 15.2217 4.59247 13.4 4.50863 11.5017C4.42418 9.5899 4.9496 7.57072 6.72967 6.01872C8.02614 4.88837 9.70441 4.4495 11.2666 4.50457C12.8204 4.55934 14.3292 5.10575 15.2875 6.03708C15.9505 6.68143 16.5207 7.34868 16.9191 8.19765C17.3026 9.01483 17.5124 9.9686 17.5288 11.1867L18.569 12.7104C19.1718 13.5933 18.6838 14.8054 17.6374 15.0244L17.527 15.0475C17.5144 15.916 17.4545 16.761 17.2603 17.4568C17.0346 18.2651 16.5888 18.9946 15.7084 19.2249C15.2804 19.3368 14.8471 19.3496 14.4476 19.3117L14.2403 20.3482C14.1861 20.6189 13.9227 20.7945 13.6519 20.7404C13.3811 20.6862 13.2055 20.4228 13.2597 20.152L13.4666 19.1173C13.087 19.0047 12.7794 18.8713 12.5978 18.7795C12.3514 18.6548 12.2527 18.354 12.3774 18.1076C12.5021 17.8612 12.8029 17.7625 13.0493 17.8872C13.2244 17.9758 13.5972 18.1347 14.0501 18.2365C14.506 18.3391 15.0053 18.3751 15.4553 18.2574C15.8358 18.1579 16.114 17.8439 16.2971 17.1879C16.4814 16.5276 16.5298 15.6456 16.5298 14.6407C16.5298 14.404 16.6958 14.1998 16.9274 14.1513L17.4326 14.0456C17.7814 13.9726 17.9441 13.5686 17.7432 13.2743L16.6169 11.6246C16.5602 11.5415 16.5298 11.4432 16.5298 11.3427C16.5298 10.1623 16.3382 9.31355 16.0139 8.62249C15.6883 7.92867 15.2131 7.35917 14.5906 6.7542C13.8522 6.03657 12.6027 5.55229 11.2314 5.50395Z" fill="black"/><path d="M10.5 8C9.11929 8 8 9.11929 8 10.5V10.875C8 12.0486 8.95139 13 10.125 13H10.75C11.5784 13 12.25 12.3284 12.25 11.5V11.25C12.25 10.5596 11.6904 10 11 10H10.25C9.97386 10 9.75 10.2239 9.75 10.5C9.75 10.7761 9.97386 11 10.25 11H11C11.2761 11 11.5 11.2239 11.5 11.5C11.5 11.7761 11.2761 12 11 12H10.25C9.42157 12 8.75 11.3284 8.75 10.5C8.75 9.67157 9.42157 9 10.25 9H11C12.2426 9 13.25 10.0074 13.25 11.25V11.5C13.25 12.8807 12.1307 14 10.75 14H10.125C8.39911 14 7 12.6009 7 10.875V10.5C7 8.567 8.567 7 10.5 7H11C13.2091 7 15 8.79086 15 11V11.5C15 11.7761 14.7761 12 14.5 12C14.2239 12 14 11.7761 14 11.5V11C14 9.34315 12.6569 8 11 8H10.5Z" fill="black"/><text x="0" y="39" fill="#000000" font-size="5px" font-weight="bold" font-family="'Helvetica Neue', Helvetica, Arial-Unicode, Arial, Sans-serif">Created by SeungJun</text><text x="0" y="44" fill="#000000" font-size="5px" font-weight="bold" font-family="'Helvetica Neue', Helvetica, Arial-Unicode, Arial, Sans-serif">from the Noun Project</text></svg>