<svg xmlns="http://www.w3.org/2000/svg" viewBox="0 0 24 30" fill="none" x="0px" y="0px"><path fill-rule="evenodd" clip-rule="evenodd" d="M13 3C15.2091 3 17 4.79086 17 7C17 7.64559 16.8471 8.25546 16.5754 8.79535C18.6438 9.83506 19.8713 11.8133 19.4932 14.0821C19.3424 14.9871 18.9496 15.7242 18.4648 16.3153C18.4875 16.3725 18.5 16.4348 18.5 16.5V20C18.5 20.2761 18.2761 20.5 18 20.5C17.7239 20.5 17.5 20.2761 17.5 20V17.2461C17.4592 17.2778 17.4184 17.3087 17.3777 17.3388C16.4648 18.0146 15.5441 18.3491 15.2448 18.4473C15.1655 18.4734 15.0892 18.4926 15.0213 18.5083L10.4993 19.5519C10.4719 20.6325 9.58728 21.5001 8.5 21.5001H8.25C7.00667 21.5001 6 20.4902 6 19.2483L6.00001 13.5001C6.00001 12.4329 6.50784 9.88645 9.37758 8.69873C9.13537 8.18312 9 7.60737 9 7C9 4.79086 10.7909 3 13 3ZM16 7C16 5.34315 14.6569 4 13 4C11.3431 4 10 5.34315 10 7C10 8.65685 11.3431 10 13 10C14.6569 10 16 8.65685 16 7ZM9.92445 9.5577C10.6582 10.439 11.7636 11 13 11C14.201 11 15.2784 10.4707 16.0116 9.63266C17.8378 10.4977 18.8056 12.1246 18.5068 13.9177C18.3092 15.1032 17.5741 15.9493 16.7827 16.5351C15.9902 17.1217 15.1816 17.4156 14.933 17.4972C14.8939 17.51 14.85 17.5216 14.7965 17.5339L10.2717 18.5781C9.54339 18.7462 8.8272 18.2551 8.72149 17.5152C8.62901 16.8678 9.04086 16.2553 9.67526 16.0967L13.7094 15.0882C14.0668 14.9988 14.3932 14.814 14.6537 14.5534L15.8535 13.3537C16.0488 13.1584 16.0488 12.8418 15.8535 12.6466C15.6583 12.4513 15.3417 12.4513 15.1464 12.6466L13.9466 13.8463C13.8143 13.9787 13.6484 14.0726 13.4668 14.118L10.5 14.8597V14C10.5 13.7239 10.2761 13.5 10 13.5C9.72386 13.5 9.5 13.7239 9.5 14V15.1097L9.43272 15.1265C8.30118 15.4094 7.56659 16.5019 7.73154 17.6566C7.87064 18.6303 8.60242 19.3624 9.4983 19.559C9.46784 20.0839 9.03253 20.5001 8.5 20.5001H8.25C7.56033 20.5001 7 19.9393 7 19.2483L7.00001 13.5001C7.00001 12.6483 7.41293 10.5115 9.92445 9.5577Z" fill="black"/><path d="M2 16C2 15.7239 2.22386 15.5 2.5 15.5H4.5C4.77614 15.5 5 15.7239 5 16C5 16.2761 4.77614 16.5 4.5 16.5H2.5C2.22386 16.5 2 16.2761 2 16Z" fill="black"/><path d="M3.14639 18.6464C2.95113 18.8417 2.95114 19.1583 3.14641 19.3535C3.34168 19.5488 3.65827 19.5488 3.85352 19.3535L5.26768 17.9392C5.46293 17.744 5.46292 17.4274 5.26765 17.2321C5.07238 17.0369 4.7558 17.0369 4.56054 17.2322L3.14639 18.6464Z" fill="black"/><text x="0" y="39" fill="#000000" font-size="5px" font-weight="bold" font-family="'Helvetica Neue', Helvetica, Arial-Unicode, Arial, Sans-serif">Created by SeungJun</text><text x="0" y="44" fill="#000000" font-size="5px" font-weight="bold" font-family="'Helvetica Neue', Helvetica, Arial-Unicode, Arial, Sans-serif">from the Noun Project</text></svg>