<?xml version="1.0" encoding="UTF-8" standalone="no"?>
<svg
   viewBox="0 0 24 30"
   fill="none"
   x="0px"
   y="0px"
   version="1.1"
   id="svg4"
   sodipodi:docname="vomito.svg"
   inkscape:version="1.4 (1:1.4+202410161351+e7c3feb100)"
   xmlns:inkscape="http://www.inkscape.org/namespaces/inkscape"
   xmlns:sodipodi="http://sodipodi.sourceforge.net/DTD/sodipodi-0.dtd"
   xmlns="http://www.w3.org/2000/svg"
   xmlns:svg="http://www.w3.org/2000/svg">
  <defs
     id="defs4" />
  <sodipodi:namedview
     id="namedview4"
     pagecolor="#ffffff"
     bordercolor="#000000"
     borderopacity="0.25"
     inkscape:showpageshadow="2"
     inkscape:pageopacity="0.0"
     inkscape:pagecheckerboard="0"
     inkscape:deskcolor="#d1d1d1"
     inkscape:zoom="26.433333"
     inkscape:cx="12.011349"
     inkscape:cy="15"
     inkscape:window-width="1854"
     inkscape:window-height="1001"
     inkscape:window-x="0"
     inkscape:window-y="0"
     inkscape:window-maximized="1"
     inkscape:current-layer="svg4" />
  <path
     fill-rule="evenodd"
     clip-rule="evenodd"
     d="m 14.078814,3.6431274 c -2.2091,0 -3.999999,1.79086 -3.999999,4 0,0.74701 0.2048,1.44619 0.561199,2.04448 -0.233199,-0.03018 -0.476199,-0.04448 -0.7287991,-0.04448 -1.6279004,0 -3.1085104,0.8759596 -4.2204904,2.7442996 -1.09966,1.8476 -1.85866,4.6883 -2.11092,8.7245 -0.01722,0.2756 0.19223,0.513 0.46784,0.5302 0.2756,0.0173 0.51299,-0.1922 0.53021,-0.4678 0.24774,-3.9638 0.98874,-6.6231 1.97219,-8.2755 0.97113,-1.6317 2.15667,-2.2557 3.3611704,-2.2557 0.8112991,0 1.3962991,0.1722 1.8323991,0.4954 0.4365,0.3236 0.7834,0.8426 1.0326,1.6517 0.508,1.6498 0.5543,4.3101 0.3036,8.3217 -0.0172,0.2756 0.1922,0.513 0.4678,0.5302 0.2756,0.0173 0.513,-0.1922 0.5302,-0.4678 0.2493,-3.9884 0.2239,-6.8281 -0.3459,-8.6783 -0.1022,-0.3321 -0.2236,-0.638 -0.3669,-0.9164 0.2316,0.0417 0.4701,0.0635 0.7138,0.0635 2.2091,0 4,-1.7908596 4,-3.9999996 0,-2.20914 -1.7909,-4 -4,-4 z m -3,4 c 0,-1.65685 1.3431,-3 3,-3 1.6569,0 3,1.34315 3,3 0,1.65685 -1.3431,2.9999996 -3,2.9999996 -1.6569,0 -3,-1.3431496 -3,-2.9999996 z"
     fill="#000000"
     id="path1" />
  <path
     d="m 17.318706,10.805229 c -0.11734,0.24997 -0.0098,0.547738 0.240149,0.665078 l 1.810453,0.849857 c 0.24997,0.11734 0.547738,0.0098 0.665078,-0.240149 0.11734,-0.249969 0.0098,-0.547738 -0.240149,-0.665078 L 17.983784,10.56508 c -0.24997,-0.117339 -0.547739,-0.0098 -0.665078,0.240149 z"
     fill="#000000"
     id="path2"
     style="fill:#000000" />
  <path
     d="m 16.28006,12.465802 c -0.19526,-0.19527 -0.19525,-0.51186 2e-5,-0.70711 0.19527,-0.19525 0.51186,-0.19524 0.70711,3e-5 l 1.41418,1.41427 c 0.1952,0.19527 0.1952,0.51185 0,0.7071 -0.1953,0.19526 -0.5119,0.19525 -0.70716,-2e-5 z"
     fill="#000000"
     id="path3" />
  <text
     x="0"
     y="39"
     fill="#000000"
     font-size="5px"
     font-weight="bold"
     font-family="'Helvetica Neue', Helvetica, Arial-Unicode, Arial, Sans-serif"
     id="text3">Created by SeungJun</text>
  <text
     x="0"
     y="44"
     fill="#000000"
     font-size="5px"
     font-weight="bold"
     font-family="'Helvetica Neue', Helvetica, Arial-Unicode, Arial, Sans-serif"
     id="text4">from the Noun Project</text>
</svg>
