<svg xmlns="http://www.w3.org/2000/svg" viewBox="0 0 24 30" fill="none" x="0px" y="0px"><path d="M17.5 5C17.5 4.72386 17.2761 4.5 17 4.5C16.7239 4.5 16.5 4.72386 16.5 5V7C16.5 7.27614 16.7239 7.5 17 7.5H19C19.2761 7.5 19.5 7.27614 19.5 7C19.5 6.72386 19.2761 6.5 19 6.5H17.5V5Z" fill="black"/><path fill-rule="evenodd" clip-rule="evenodd" d="M8.25 5.5H12.7561C13.3738 3.75221 15.0407 2.5 17 2.5C19.4853 2.5 21.5 4.51472 21.5 7C21.5 9.31628 19.75 11.2238 17.5 11.4725V15.75C17.5 17.8211 15.8211 19.5 13.75 19.5H13.25C13.25 20.4665 12.4665 21.25 11.5 21.25C10.5335 21.25 9.75 20.4665 9.75 19.5V18.75C9.75 18.0852 9.98591 17.4755 10.3786 17H8.5C7.69861 17 7.044 16.3715 7.00213 15.5806C6.77427 15.6892 6.51924 15.75 6.25 15.75C5.2835 15.75 4.5 14.9665 4.5 14V9.25C4.5 7.17893 6.17893 5.5 8.25 5.5ZM17 3.5C15.067 3.5 13.5 5.067 13.5 7C13.5 8.933 15.067 10.5 17 10.5C18.933 10.5 20.5 8.933 20.5 7C20.5 5.067 18.933 3.5 17 3.5ZM12.5 7C12.5 6.831 12.5093 6.66417 12.5275 6.5H8.25C6.73122 6.5 5.5 7.73122 5.5 9.25V14C5.5 14.4142 5.83579 14.75 6.25 14.75C6.66421 14.75 7 14.4142 7 14V9.25C7 8.55964 7.55964 8 8.25 8H12.6115C12.5385 7.67839 12.5 7.34369 12.5 7ZM15 11.0322C15.4607 11.2612 15.9663 11.4135 16.5 11.4725V15.75C16.5 17.2688 15.2688 18.5 13.75 18.5H12.5C12.3619 18.5 12.25 18.6119 12.25 18.75V19.5C12.25 19.9142 11.9142 20.25 11.5 20.25C11.0858 20.25 10.75 19.9142 10.75 19.5V18.75C10.75 17.7835 11.5335 17 12.5 17H13.75C14.4404 17 15 16.4404 15 15.75V11.0322ZM12.9678 9C13.2238 9.51519 13.5756 9.97435 14 10.3542V11C14 11.5523 13.5523 12 13 12H9V13H13C13.5523 13 14 13.4477 14 14V15C14 15.5523 13.5523 16 13 16H8.5C8.22386 16 8 15.7761 8 15.5C8 15.2239 8.22386 15 8.5 15H13V14H9C8.44772 14 8 13.5523 8 13V12C8 11.4477 8.44772 11 9 11H13V10H8.5C8.22386 10 8 9.77614 8 9.5C8 9.22386 8.22386 9 8.5 9H12.9678Z" fill="black"/><text x="0" y="39" fill="#000000" font-size="5px" font-weight="bold" font-family="'Helvetica Neue', Helvetica, Arial-Unicode, Arial, Sans-serif">Created by SeungJun</text><text x="0" y="44" fill="#000000" font-size="5px" font-weight="bold" font-family="'Helvetica Neue', Helvetica, Arial-Unicode, Arial, Sans-serif">from the Noun Project</text></svg>