<svg xmlns="http://www.w3.org/2000/svg" viewBox="0 0 24 30" fill="none" x="0px" y="0px"><path d="M12.5 7C12.5 6.72386 12.2761 6.5 12 6.5C11.7239 6.5 11.5 6.72386 11.5 7V14.5854C10.9174 14.7913 10.5 15.3469 10.5 16C10.5 16.8284 11.1716 17.5 12 17.5C12.8284 17.5 13.5 16.8284 13.5 16C13.5 15.3469 13.0826 14.7913 12.5 14.5854V7Z" fill="black"/><path fill-rule="evenodd" clip-rule="evenodd" d="M9 7C9 5.34315 10.3431 4 12 4C13.6569 4 15 5.34315 15 7V12.6459C15.9199 13.4692 16.5 14.667 16.5 16C16.5 18.4853 14.4853 20.5 12 20.5C9.51472 20.5 7.5 18.4853 7.5 16C7.5 14.667 8.08009 13.4692 9 12.6459V7ZM12 5C10.8954 5 10 5.89543 10 7V12.8773C10 13.029 9.93111 13.1725 9.81274 13.2674C9.01156 13.9097 8.5 14.8949 8.5 16C8.5 17.933 10.067 19.5 12 19.5C13.933 19.5 15.5 17.933 15.5 16C15.5 14.8949 14.9884 13.9097 14.1873 13.2674C14.0689 13.1725 14 13.029 14 12.8773V7C14 5.89543 13.1046 5 12 5Z" fill="black"/><path d="M17.9061 7.2917C18.0672 7.0674 18.016 6.755 17.7917 6.59392C17.5674 6.43284 17.255 6.48408 17.0939 6.70838C16.302 7.81097 16.302 9.18911 17.0939 10.2917C17.6354 11.0457 17.6354 11.9544 17.0939 12.7084C16.9328 12.9327 16.984 13.2451 17.2083 13.4062C17.4326 13.5672 17.745 13.516 17.9061 13.2917C18.698 12.1891 18.698 10.811 17.9061 9.70838C17.3646 8.95438 17.3646 8.0457 17.9061 7.2917Z" fill="black"/><path d="M20.2917 6.59392C20.516 6.755 20.5672 7.0674 20.4061 7.2917C19.8646 8.0457 19.8646 8.95438 20.4061 9.70838C21.198 10.811 21.198 12.1891 20.4061 13.2917C20.245 13.516 19.9326 13.5672 19.7083 13.4062C19.484 13.2451 19.4328 12.9327 19.5939 12.7084C20.1354 11.9544 20.1354 11.0457 19.5939 10.2917C18.802 9.18911 18.802 7.81097 19.5939 6.70838C19.755 6.48408 20.0674 6.43284 20.2917 6.59392Z" fill="black"/><path d="M5.35355 6.64645C5.15829 6.45118 4.84171 6.45118 4.64645 6.64645L3.14645 8.14645C2.95118 8.34171 2.95118 8.65829 3.14645 8.85355C3.34171 9.04882 3.65829 9.04882 3.85355 8.85355L4.5 8.20711V13C4.5 13.2761 4.72386 13.5 5 13.5C5.27614 13.5 5.5 13.2761 5.5 13V8.20711L6.14645 8.85355C6.34171 9.04882 6.65829 9.04882 6.85355 8.85355C7.04882 8.65829 7.04882 8.34171 6.85355 8.14645L5.35355 6.64645Z" fill="black"/><text x="0" y="39" fill="#000000" font-size="5px" font-weight="bold" font-family="'Helvetica Neue', Helvetica, Arial-Unicode, Arial, Sans-serif">Created by SeungJun</text><text x="0" y="44" fill="#000000" font-size="5px" font-weight="bold" font-family="'Helvetica Neue', Helvetica, Arial-Unicode, Arial, Sans-serif">from the Noun Project</text></svg>