<svg xmlns="http://www.w3.org/2000/svg" viewBox="0 0 24 30" fill="none" x="0px" y="0px"><path fill-rule="evenodd" clip-rule="evenodd" d="M6 5C6 4.72386 6.22386 4.5 6.5 4.5H10.5C10.7761 4.5 11 4.72386 11 5V11.5H16.5C17.3206 11.5 18.0236 12.1759 17.9411 13.045C17.8674 13.8207 17.6991 14.9425 17.3074 15.9746C16.9211 16.9925 16.2771 18.0277 15.1857 18.4642C14.5885 18.7031 13.9189 18.8351 13.4135 18.908C13.2611 18.93 13.1213 18.947 13 18.96V20C13 20.2761 12.7761 20.5 12.5 20.5H6.5C6.22386 20.5 6 20.2761 6 20V5ZM10 5.5V11.5H7V5.5H10ZM7 19.5V12.5H16.5C16.784 12.5 16.9674 12.7199 16.9455 12.9505C16.8756 13.6872 16.7185 14.708 16.3725 15.6198C16.0211 16.5456 15.5152 17.2554 14.8143 17.5358C14.3237 17.732 13.7433 17.85 13.2706 17.9183C13.0373 17.952 12.8365 17.9727 12.6947 17.9849C12.6239 17.991 12.5681 17.995 12.5307 17.9974L12.4888 17.9999L12.479 18.0004L12.4771 18.0005C12.2102 18.0129 12 18.2328 12 18.5V19.5H7Z" fill="black"/><path d="M15.9362 5.12574L15.013 7.50202C14.9712 7.60963 15.034 7.72882 15.1481 7.75858L15.8793 7.9492C15.9934 7.97896 16.0562 8.09815 16.0144 8.20576L15.42 9.73548C15.3413 9.93827 15.6109 10.0954 15.7573 9.93203L17.9506 7.485C18.0478 7.37658 17.9946 7.20658 17.8519 7.16937L16.9439 6.93266C16.8241 6.90142 16.7622 6.77247 16.8145 6.66292L17.3468 5.54823C17.3991 5.43869 17.3373 5.30974 17.2174 5.27849L16.1747 5.00665C16.0756 4.98081 15.9725 5.03229 15.9362 5.12574Z" fill="black"/><text x="0" y="39" fill="#000000" font-size="5px" font-weight="bold" font-family="'Helvetica Neue', Helvetica, Arial-Unicode, Arial, Sans-serif">Created by SeungJun</text><text x="0" y="44" fill="#000000" font-size="5px" font-weight="bold" font-family="'Helvetica Neue', Helvetica, Arial-Unicode, Arial, Sans-serif">from the Noun Project</text></svg>